<svg xmlns="http://www.w3.org/2000/svg" xmlns:xlink="http://www.w3.org/1999/xlink" viewBox="0 0 2067.01 1070.15"><defs><style>.cls-1,.cls-189,.cls-190,.cls-42{fill:none;}.cls-2{clip-path:url(#clip-path);}.cls-3{fill:url(#linear-gradient);}.cls-4{fill:url(#linear-gradient-2);}.cls-5{fill:url(#Безымянный_градиент_103);}.cls-6{fill:url(#Безымянный_градиент_103-2);}.cls-7{fill:#90abfe;}.cls-8{fill:url(#Безымянный_градиент_103-3);}.cls-9{fill:url(#Безымянный_градиент_97);}.cls-10{fill:#97bbff;}.cls-11{fill:#6785ec;}.cls-12{fill:url(#Безымянный_градиент_14);}.cls-13{fill:url(#Безымянный_градиент_26);}.cls-14{clip-path:url(#clip-path-5);}.cls-15{fill:url(#Безымянный_градиент_38);}.cls-16{fill:url(#Безымянный_градиент_91);}.cls-17{fill:url(#Безымянный_градиент_52);}.cls-18{fill:url(#Безымянный_градиент_14-2);}.cls-19{fill:url(#Безымянный_градиент_126);}.cls-20{fill:url(#Безымянный_градиент_38-2);}.cls-21{fill:url(#Безымянный_градиент_128);}.cls-22{clip-path:url(#clip-path-6);}.cls-23{fill:url(#linear-gradient-5);}.cls-24{fill:url(#Безымянный_градиент_38-3);}.cls-25{clip-path:url(#clip-path-8);}.cls-26{fill:url(#linear-gradient-6);}.cls-27{fill:#658beb;}.cls-28{fill:url(#Безымянный_градиент_38-4);}.cls-29{fill:url(#Безымянный_градиент_38-5);}.cls-30{fill:url(#Безымянный_градиент_103-4);}.cls-31{fill:#4a6bd5;}.cls-32{fill:url(#Безымянный_градиент_120);}.cls-33{fill:url(#Безымянный_градиент_26-2);}.cls-34{fill:#71a2fc;}.cls-35{fill:url(#Безымянный_градиент_38-6);}.cls-36{fill:#6385e6;}.cls-37{fill:url(#Безымянный_градиент_120-2);}.cls-38{fill:url(#Безымянный_градиент_52-2);}.cls-39{clip-path:url(#clip-path-11);}.cls-40{fill:url(#Безымянный_градиент_120-3);}.cls-41{fill:url(#Безымянный_градиент_120-4);}.cls-42{stroke:#000;}.cls-189,.cls-190,.cls-42{stroke-miterlimit:10;}.cls-43{fill:url(#Безымянный_градиент_26-3);}.cls-44{fill:url(#Безымянный_градиент_38-7);}.cls-45{fill:url(#Безымянный_градиент_128-2);}.cls-46{clip-path:url(#clip-path-12);}.cls-47{clip-path:url(#clip-path-13);}.cls-48{fill:#a0bbff;}.cls-49{fill:#405894;}.cls-50{fill:#213465;}.cls-51{fill:#b9cdff;}.cls-52{fill:#aec5ff;}.cls-53{fill:#cfddff;}.cls-54{fill:#425b97;}.cls-55{fill:#a2bdff;}.cls-56{fill:#232f5f;}.cls-57{fill:#a4beff;}.cls-58{fill:#c3d4ff;}.cls-59{fill:#d7e3ff;}.cls-60{fill:#ccdbff;}.cls-61{fill:#bed0ff;}.cls-62{fill:#3d548e;}.cls-63{fill:#465f9d;}.cls-64{fill:#415895;}.cls-65{fill:#93b2ff;}.cls-66{fill:#c9d8ff;}.cls-67{fill:#adc4ff;}.cls-68{fill:#d7e2ff;}.cls-69{fill:#445c9a;}.cls-70{fill:#d2dfff;}.cls-71{fill:#dde7ff;}.cls-72{fill:#d8e3ff;}.cls-73{fill:#98b5ff;}.cls-74{fill:#d8e4ff;}.cls-75{fill:#3c5589;}.cls-76{fill:#3e5691;}.cls-77{fill:#3b528c;}.cls-78{fill:#3a528c;}.cls-79{fill:#2f4479;}.cls-80{fill:#30467c;}.cls-81{fill:#dae4ff;}.cls-82{fill:#cbdaff;}.cls-83{fill:#32477e;}.cls-84{fill:#364c84;}.cls-85{fill:#182955;}.cls-86{fill:#1b2d5c;}.cls-87{fill:#e4eaf0;}.cls-88{fill:#334880;}.cls-89{fill:#2a3e72;}.cls-90{fill:#243869;}.cls-91{fill:#283c6f;}.cls-92{fill:#2d4176;}.cls-93{fill:#9fbaff;}.cls-94{fill:#2c4075;}.cls-95{fill:#0f2049;}.cls-96{fill:#2a3e73;}.cls-97{fill:#203364;}.cls-98{fill:#1e305f;}.cls-99{fill:#172854;}.cls-100{fill:#162753;}.cls-101{fill:#616497;}.cls-102{fill:#233567;}.cls-103{fill:#12224d;}.cls-104{fill:#2d51c4;}.cls-105{fill:#384e88;}.cls-106{fill:#30457a;}.cls-107{fill:#142550;}.cls-108{fill:#9ab6ff;}.cls-109{fill:#293d71;}.cls-110{fill:#1c2d5b;}.cls-111{fill:#1e3060;}.cls-112{fill:#273b6e;}.cls-113{fill:#334980;}.cls-114{fill:#203263;}.cls-115{fill:#9bb7ff;}.cls-116{fill:#1a2d5a;}.cls-117{fill:#415996;}.cls-118{fill:#3b518b;}.cls-119{fill:#435b98;}.cls-120{fill:#11214c;}.cls-121{fill:#80a4ff;}.cls-122{fill:#1a2c59;}.cls-123{fill:#364c85;}.cls-124{fill:#384f87;}.cls-125{fill:#1d305f;}.cls-126{fill:#405793;}.cls-127{fill:#172855;}.cls-128{fill:#2c4175;}.cls-129{fill:#344982;}.cls-130{fill:#a2bcff;}.cls-131{fill:#bfd1ff;}.cls-132{fill:#1f3261;}.cls-133{fill:#182a56;}.cls-134{clip-path:url(#clip-path-14);}.cls-135{fill:#25386a;}.cls-136{fill:#2b3f72;}.cls-137{fill:#32487f;}.cls-138{fill:#1c2545;}.cls-139{fill:#213464;}.cls-140{fill:#25386b;}.cls-141{fill:#1c2f5d;}.cls-142{opacity:0.2;}.cls-143{clip-path:url(#clip-path-17);}.cls-144,.cls-148,.cls-151,.cls-157,.cls-166,.cls-184,.cls-186{opacity:0.8;}.cls-144{fill:url(#Безымянный_градиент_139);}.cls-145,.cls-149,.cls-153,.cls-165,.cls-182,.cls-187{opacity:0.4;}.cls-145{fill:url(#Безымянный_градиент_139-2);}.cls-146{fill:url(#Безымянный_градиент_139-3);}.cls-147{fill:url(#Безымянный_градиент_139-4);}.cls-148{fill:url(#Безымянный_градиент_139-5);}.cls-149{fill:url(#Безымянный_градиент_139-6);}.cls-150{fill:url(#Безымянный_градиент_139-7);}.cls-151{fill:url(#Безымянный_градиент_139-8);}.cls-152{fill:url(#Безымянный_градиент_139-9);}.cls-153{fill:url(#Безымянный_градиент_139-10);}.cls-154{fill:url(#Безымянный_градиент_139-11);}.cls-155{fill:url(#Безымянный_градиент_139-12);}.cls-156,.cls-160{opacity:0.55;}.cls-156{fill:url(#Безымянный_градиент_139-13);}.cls-157{fill:url(#Безымянный_градиент_139-14);}.cls-158,.cls-168{opacity:0.3;}.cls-158{fill:url(#Безымянный_градиент_139-15);}.cls-159{fill:url(#Безымянный_градиент_139-16);}.cls-160{fill:url(#Безымянный_градиент_139-17);}.cls-161{fill:url(#Безымянный_градиент_139-18);}.cls-162{fill:url(#Безымянный_градиент_139-19);}.cls-163{fill:url(#Безымянный_градиент_139-20);}.cls-164{fill:url(#Безымянный_градиент_139-21);}.cls-165{fill:url(#Безымянный_градиент_139-22);}.cls-166{fill:url(#Безымянный_градиент_139-23);}.cls-167{fill:url(#Безымянный_градиент_139-24);}.cls-168{fill:url(#Безымянный_градиент_139-25);}.cls-169{clip-path:url(#clip-path-19);}.cls-170{opacity:0.77;}.cls-171{clip-path:url(#clip-path-20);}.cls-172{clip-path:url(#clip-path-21);}.cls-173{opacity:0.65;}.cls-174{clip-path:url(#clip-path-22);}.cls-175{clip-path:url(#clip-path-23);}.cls-176{clip-path:url(#clip-path-25);}.cls-177{clip-path:url(#clip-path-26);}.cls-178{opacity:0.42;}.cls-179{clip-path:url(#clip-path-28);}.cls-180{fill:url(#Безымянный_градиент_139-26);}.cls-181{fill:url(#Безымянный_градиент_139-27);}.cls-182{fill:url(#Безымянный_градиент_139-28);}.cls-183{fill:url(#Безымянный_градиент_139-29);}.cls-184{fill:url(#Безымянный_градиент_139-30);}.cls-185{fill:url(#Безымянный_градиент_139-31);}.cls-186{fill:url(#Безымянный_градиент_139-32);}.cls-187{fill:url(#Безымянный_градиент_139-33);}.cls-188{fill:#5477d9;}.cls-189{stroke:#6a94ff;}.cls-189,.cls-190{stroke-width:4px;}.cls-190{stroke:#5b7fce;}</style><clipPath id="clip-path"><path class="cls-1" d="M0,0V0Z"/></clipPath><linearGradient id="linear-gradient" y1="1066.05" x2="1" y2="1066.05" gradientTransform="translate(-1151336 1080) rotate(-90) scale(1080)" gradientUnits="userSpaceOnUse"><stop offset="0" stop-color="#fffffe"/><stop offset="1" stop-color="#dde1e9"/></linearGradient><linearGradient id="linear-gradient-2" y1="1066.05" x2="1" y2="1066.05" gradientTransform="translate(-1151336 1080) rotate(-90) scale(1080)" gradientUnits="userSpaceOnUse"><stop offset="0" stop-color="#11283e"/><stop offset="1" stop-color="#fff"/></linearGradient><linearGradient id="Безымянный_градиент_103" x1="1716.17" y1="838.85" x2="1813.67" y2="838.85" gradientUnits="userSpaceOnUse"><stop offset="0" stop-color="#5b83cc"/><stop offset="1" stop-color="#5685d5"/></linearGradient><linearGradient id="Безымянный_градиент_103-2" x1="1691.12" y1="1013.45" x2="1757.5" y2="1013.45" xlink:href="#Безымянный_градиент_103"/><linearGradient id="Безымянный_градиент_103-3" x1="1691.88" y1="1049.25" x2="1757.5" y2="1049.25" xlink:href="#Безымянный_градиент_103"/><linearGradient id="Безымянный_градиент_97" x1="1937.83" y1="1065.78" x2="1937.83" y2="485.08" gradientUnits="userSpaceOnUse"><stop offset="0" stop-color="#596ec7"/><stop offset="0.59" stop-color="#576ec9"/><stop offset="0.89" stop-color="#506dd1"/><stop offset="1" stop-color="#4b6cd6"/></linearGradient><linearGradient id="Безымянный_градиент_14" x1="1638.89" y1="974.79" x2="1638.89" y2="705.36" gradientUnits="userSpaceOnUse"><stop offset="0" stop-color="#6785ec"/><stop offset="1" stop-color="#6785ec"/></linearGradient><linearGradient id="Безымянный_градиент_26" x1="1644.55" y1="1006" x2="1814.28" y2="712.02" gradientUnits="userSpaceOnUse"><stop offset="0" stop-color="#8597f6"/><stop offset="1" stop-color="#71a0fb"/></linearGradient><clipPath id="clip-path-5"><rect class="cls-1" x="1180.5" y="383.91" width="867.39" height="683.09"/></clipPath><linearGradient id="Безымянный_градиент_38" x1="1570.3" y1="953.66" x2="1656.84" y2="953.66" gradientUnits="userSpaceOnUse"><stop offset="0" stop-color="#3959af"/><stop offset="0.99" stop-color="#3355a6"/></linearGradient><linearGradient id="Безымянный_градиент_91" x1="1640.27" y1="1067.43" x2="1640.27" y2="946.52" gradientUnits="userSpaceOnUse"><stop offset="0" stop-color="#5a6ec6"/><stop offset="1" stop-color="#4b6cd6"/></linearGradient><linearGradient id="Безымянный_градиент_52" x1="1578.42" y1="1067.5" x2="1578.42" y2="946.26" gradientUnits="userSpaceOnUse"><stop offset="0" stop-color="#8999fb"/><stop offset="0.89" stop-color="#74a0fb"/><stop offset="1" stop-color="#71a1fb"/></linearGradient><linearGradient id="Безымянный_градиент_14-2" x1="1439.66" y1="1006.5" x2="1570.16" y2="1006.5" xlink:href="#Безымянный_градиент_14"/><linearGradient id="Безымянный_градиент_126" x1="1492.23" y1="944.5" x2="1492.23" y2="846.3" gradientUnits="userSpaceOnUse"><stop offset="0" stop-color="#5d83c6"/><stop offset="0.99" stop-color="#628be7"/></linearGradient><linearGradient id="Безымянный_градиент_38-2" x1="1421.48" y1="845.65" x2="1497.98" y2="845.65" xlink:href="#Безымянный_градиент_38"/><linearGradient id="Безымянный_градиент_128" x1="1428.73" y1="944.5" x2="1428.73" y2="850.18" xlink:href="#Безымянный_градиент_91"/><clipPath id="clip-path-6"><path class="cls-1" d="M1297.88,1009.45c1.25-.51,1.57-.68,1.48-.68s-1.59.54-1.48.68m-60.62,52.32c-.1.25-2.17,5-2.06,5.23l67.35.5-3-58.05-41.25-.95Z"/></clipPath><linearGradient id="linear-gradient-5" x1="-0.01" y1="1067.21" x2="1" y2="1067.21" gradientTransform="matrix(0, -59.26, -59.26, 0, 64515.68, 1067.76)" gradientUnits="userSpaceOnUse"><stop offset="0" stop-color="#7c7be6"/><stop offset="0.22" stop-color="#7181e6"/><stop offset="0.67" stop-color="#608be6"/><stop offset="1" stop-color="#5a8fe6"/></linearGradient><linearGradient id="Безымянный_градиент_38-3" x1="1249.29" y1="1002.76" x2="1299.5" y2="1002.76" xlink:href="#Безымянный_градиент_38"/><clipPath id="clip-path-8"><path class="cls-1" d="M1248.72,996.92,1182.25,1067h52.95l23.05-58.5-9-11.56a.34.34,0,0,0-.52,0"/></clipPath><linearGradient id="linear-gradient-6" y1="1067" x2="1" y2="1067" gradientTransform="matrix(0, -70.69, -70.69, 0, 76645.15, 1067.5)" gradientUnits="userSpaceOnUse"><stop offset="0" stop-color="#98a2f7"/><stop offset="1" stop-color="#c7e0ff"/></linearGradient><linearGradient id="Безымянный_градиент_38-4" x1="1918.91" y1="598.94" x2="2067.01" y2="598.94" xlink:href="#Безымянный_градиент_38"/><linearGradient id="Безымянный_градиент_38-5" x1="2021.33" y1="836.08" x2="2047.76" y2="836.08" xlink:href="#Безымянный_градиент_38"/><linearGradient id="Безымянный_градиент_103-4" x1="1957.44" y1="1068.68" x2="1957.44" y2="610.41" xlink:href="#Безымянный_градиент_103"/><linearGradient id="Безымянный_градиент_120" x1="1759.17" y1="701.02" x2="1889.28" y2="701.02" gradientUnits="userSpaceOnUse"><stop offset="0" stop-color="#3959af"/><stop offset="1" stop-color="#3355a5"/></linearGradient><linearGradient id="Безымянный_градиент_26-2" x1="1772.4" y1="1067.29" x2="1772.4" y2="966.47" xlink:href="#Безымянный_градиент_26"/><linearGradient id="Безымянный_градиент_38-6" x1="1764.76" y1="492.37" x2="2048" y2="492.37" xlink:href="#Безымянный_градиент_38"/><linearGradient id="Безымянный_градиент_120-2" x1="1807.06" y1="985.5" x2="1807.06" y2="950.61" xlink:href="#Безымянный_градиент_120"/><linearGradient id="Безымянный_градиент_52-2" x1="1479.11" y1="944.5" x2="1479.11" y2="857.75" xlink:href="#Безымянный_градиент_52"/><clipPath id="clip-path-11"><rect class="cls-1" width="2048" height="1067"/></clipPath><linearGradient id="Безымянный_градиент_120-3" x1="1382.92" y1="953.99" x2="1570.13" y2="953.99" xlink:href="#Безымянный_градиент_120"/><linearGradient id="Безымянный_градиент_120-4" x1="1554.16" y1="705.68" x2="1737.93" y2="705.68" xlink:href="#Безымянный_градиент_120"/><linearGradient id="Безымянный_градиент_26-3" x1="1343.56" y1="1067.5" x2="1343.56" y2="968.11" xlink:href="#Безымянный_градиент_26"/><linearGradient id="Безымянный_градиент_38-7" x1="1296.07" y1="963.93" x2="1386.03" y2="963.93" xlink:href="#Безымянный_градиент_38"/><linearGradient id="Безымянный_градиент_128-2" x1="1400.92" y1="1067.5" x2="1400.92" y2="954.25" xlink:href="#Безымянный_градиент_91"/><clipPath id="clip-path-12"><rect class="cls-1" x="143.25" y="-39.63" width="2048" height="1067"/></clipPath><clipPath id="clip-path-13"/><clipPath id="clip-path-14"><rect class="cls-1" x="1030.8" y="503.99" width="22.21" height="54.7"/></clipPath><clipPath id="clip-path-17"><rect class="cls-1" x="32.82" y="371.41" width="868.45" height="524.65"/></clipPath><radialGradient id="Безымянный_градиент_139" cx="1390.44" cy="887.9" r="11.72" gradientUnits="userSpaceOnUse"><stop offset="0" stop-color="#d5e9f8"/><stop offset="1" stop-color="#9fc2fe"/></radialGradient><radialGradient id="Безымянный_градиент_139-2" cx="1573.23" cy="580.43" r="9.91" xlink:href="#Безымянный_градиент_139"/><radialGradient id="Безымянный_градиент_139-3" cx="1605.9" cy="628.39" r="11.72" xlink:href="#Безымянный_градиент_139"/><radialGradient id="Безымянный_градиент_139-4" cx="1466.87" cy="773.45" r="5.86" xlink:href="#Безымянный_градиент_139"/><radialGradient id="Безымянный_градиент_139-5" cx="1616.73" cy="533.5" r="5.86" xlink:href="#Безымянный_градиент_139"/><radialGradient id="Безымянный_градиент_139-6" cx="1832.15" cy="408.83" r="9.91" xlink:href="#Безымянный_градиент_139"/><radialGradient id="Безымянный_градиент_139-7" cx="2000.39" cy="440.99" r="9.91" xlink:href="#Безымянный_градиент_139"/><radialGradient id="Безымянный_градиент_139-8" cx="1224.97" cy="786.1" r="10.39" xlink:href="#Безымянный_градиент_139"/><radialGradient id="Безымянный_градиент_139-9" cx="1184.43" cy="769.1" r="6.14" xlink:href="#Безымянный_градиент_139"/><radialGradient id="Безымянный_градиент_139-10" cx="1154.34" cy="809.5" r="6.14" xlink:href="#Безымянный_градиент_139"/><radialGradient id="Безымянный_градиент_139-11" cx="1226.89" cy="746.07" r="6.14" xlink:href="#Безымянный_градиент_139"/><radialGradient id="Безымянный_градиент_139-12" cx="1023.75" cy="432.89" r="6.14" xlink:href="#Безымянный_градиент_139"/><radialGradient id="Безымянный_градиент_139-13" cx="858.99" cy="472.41" r="6.14" xlink:href="#Безымянный_градиент_139"/><radialGradient id="Безымянный_градиент_139-14" cx="1202.71" cy="759.47" r="3.04" xlink:href="#Безымянный_градиент_139"/><radialGradient id="Безымянный_градиент_139-15" cx="1048.43" cy="439.11" r="3.04" xlink:href="#Безымянный_градиент_139"/><radialGradient id="Безымянный_градиент_139-16" cx="1023.75" cy="426.75" r="3.04" xlink:href="#Безымянный_градиент_139"/><radialGradient id="Безымянный_градиент_139-17" cx="1178.29" cy="762.96" r="3.04" xlink:href="#Безымянный_градиент_139"/><radialGradient id="Безымянный_градиент_139-18" cx="1184.43" cy="796.49" r="3.04" xlink:href="#Безымянный_градиент_139"/><radialGradient id="Безымянный_градиент_139-19" cx="1137.27" cy="772.19" r="3.04" xlink:href="#Безымянный_градиент_139"/><radialGradient id="Безымянный_градиент_139-20" cx="1107.86" cy="796.49" r="3.04" xlink:href="#Безымянный_градиент_139"/><radialGradient id="Безымянный_градиент_139-21" cx="1104.81" cy="793.44" r="3.04" xlink:href="#Безымянный_градиент_139"/><radialGradient id="Безымянный_градиент_139-22" cx="1057.02" cy="793.44" r="3.04" xlink:href="#Безымянный_градиент_139"/><radialGradient id="Безымянный_градиент_139-23" cx="1221.89" cy="744.89" r="6.14" xlink:href="#Безымянный_градиент_139"/><radialGradient id="Безымянный_градиент_139-24" cx="822.1" cy="445.11" r="3.04" xlink:href="#Безымянный_градиент_139"/><radialGradient id="Безымянный_градиент_139-25" cx="833.3" cy="405.4" r="3.04" xlink:href="#Безымянный_градиент_139"/><clipPath id="clip-path-19"><rect class="cls-1" x="400.6" width="1576.49" height="1067"/></clipPath><clipPath id="clip-path-20"><rect class="cls-1" x="1153.04" width="444.58" height="1080"/></clipPath><clipPath id="clip-path-21"><polygon class="cls-1" points="1153.04 1080 1573.23 1071.92 1573.23 120.74 1269.05 120.74 1153.04 1080"/></clipPath><clipPath id="clip-path-22"><rect class="cls-1" x="1154.6" width="443.02" height="1067.64"/></clipPath><clipPath id="clip-path-23"><polygon class="cls-1" points="1512.44 120.74 1154.6 1067.09 1154.6 1067.09 1389.42 1067.64 1573.23 125.1 1573.23 120.74 1512.44 120.74"/></clipPath><clipPath id="clip-path-25"><rect class="cls-1" x="416.96" width="684.6" height="1071.92"/></clipPath><clipPath id="clip-path-26"><rect class="cls-1" x="416.96" y="120.74" width="610.05" height="951.18"/></clipPath><clipPath id="clip-path-28"><polygon class="cls-1" points="981.9 120.74 416.96 1064.14 673.34 1071.92 1027.02 186.59 1027.02 120.74 981.9 120.74"/></clipPath><radialGradient id="Безымянный_градиент_139-26" cx="1287.02" cy="827.62" r="5.86" xlink:href="#Безымянный_градиент_139"/><radialGradient id="Безымянный_градиент_139-27" cx="1804.99" cy="920" r="5.86" xlink:href="#Безымянный_градиент_139"/><radialGradient id="Безымянный_градиент_139-28" cx="1804.99" cy="864.67" r="5.86" xlink:href="#Безымянный_градиент_139"/><radialGradient id="Безымянный_градиент_139-29" cx="1849.55" cy="303.7" r="5.86" xlink:href="#Безымянный_градиент_139"/><radialGradient id="Безымянный_градиент_139-30" cx="1995.28" cy="305.41" r="5.86" xlink:href="#Безымянный_градиент_139"/><radialGradient id="Безымянный_градиент_139-31" cx="1327.7" cy="697.66" r="4.29" xlink:href="#Безымянный_градиент_139"/><radialGradient id="Безымянный_градиент_139-32" cx="1556.24" cy="437.97" r="4.29" xlink:href="#Безымянный_градиент_139"/><radialGradient id="Безымянный_градиент_139-33" cx="1260.13" cy="531.03" r="4.29" xlink:href="#Безымянный_градиент_139"/></defs><title>Sea Whale Up</title><g id="Layer_1" data-name="Layer 1"><g class="cls-2"><path class="cls-3" d="M0,1067v0Z"/></g><g class="cls-2"><path class="cls-4" d="M0,1067v0Z"/></g><g class="cls-2"><path class="cls-3" d="M0,1067v0Z"/></g><g class="cls-2"><path class="cls-4" d="M0,1067v0Z"/></g><polygon class="cls-5" points="1813.67 711.39 1785.93 783.79 1716.17 966.3 1804.98 950.61 1813.67 711.39"/><polyline class="cls-6" points="1718.31 959.89 1691.12 1032.16 1709.39 1067 1757.5 1067 1718.65 960.08"/><polygon class="cls-7" points="1766.46 493.87 1842.03 501.59 1827.67 691.8 1758.88 700.14 1734.42 750.86 1737.93 706.16 1722.82 703.87 1766.46 493.87"/><polyline class="cls-8" points="1691.88 1031.78 1709.39 1066.72 1757.5 1066.72"/><polyline class="cls-9" points="1836.47 691.84 1827.67 691 1842.03 501.59 2047.79 485.08 2048 581.93 2012.67 585.67 1922.06 623.3 1892.17 697.17 1940.89 1065.78 1918.3 898.38 1892.17 697.17 1843.2 692.49"/><polygon class="cls-10" points="1522.11 944.5 1582.04 712.87 1555.39 706.45 1495.74 844 1495.74 848.51 1522.11 944.5"/><polyline class="cls-11" points="1522.11 944.5 1559.39 948.51 1582.04 712.87 1523.33 939.36"/><polygon class="cls-12" points="1722.08 901.23 1737.93 705.37 1582.04 712.87 1539.86 959.89 1597.62 970.51 1665.55 969.66 1694.66 974.79 1722.08 901.23"/><polyline class="cls-13" points="1715.82 967.06 1692.77 1033.84 1655.13 968.54 1635.03 963.09 1759.12 696.21 1813.67 711.67"/><g class="cls-14"><path class="cls-15" d="M1656.84,966.78h0l-85.24-20.17a1.59,1.59,0,0,1,.21-3.15l25.28-2.9a1.84,1.84,0,0,1,1,.14Z"/><polygon class="cls-16" points="1656.61 966.69 1709.16 1066.93 1623.28 1067.43 1571.37 946.51 1656.61 966.69 1656.61 966.69 1656.61 966.69"/><path class="cls-17" d="M1602.38,1018.49l20.57,47.73a.92.92,0,0,1-.84,1.28h-87.37a.92.92,0,0,1-.88-1.18l35.92-119.41a.92.92,0,0,1,1.72-.1Z"/><path class="cls-18" d="M1570.16,945.64,1533.5,1067.5h-88.75c0-6.92-5.09-104-5.09-104l129.85-18c.13,0-.05.07,0,0"/><polygon class="cls-19" points="1497.98 846.3 1525.7 944.5 1500.59 944.5 1458.75 857.75 1497.98 846.3"/><path class="cls-20" d="M1494.38,842.44l1.48.41a2.6,2.6,0,0,1-.06,5.12l-37,9.57a3.43,3.43,0,0,1-1.59,0l-33.46-7.39a2.61,2.61,0,0,1-.23-5.14l37.81-11.27a3.42,3.42,0,0,1,1.89,0Z"/><polygon class="cls-21" points="1457.83 944.5 1398.71 944.5 1423.78 850.18 1458.75 857.75 1457.83 944.5"/></g><g class="cls-22"><polygon class="cls-23" points="1235.2 1067 1235.2 1008.5 1299.5 1009.45 1302.55 1067.5 1235.2 1067"/></g><g class="cls-14"><path class="cls-24" d="M1250,996.07l49.34,1.85.13,11.53-40.9-.95a.71.71,0,0,1-.56-.27l-8.59-11a.71.71,0,0,1,.59-1.15"/></g><g class="cls-25"><rect class="cls-26" x="1182.25" y="996.81" width="76" height="70.19"/></g><polygon class="cls-27" points="1940.26 1067.5 1889.46 697.67 1813.67 711.67 1923.5 1067.5 1940.26 1067.5"/><g class="cls-14"><path class="cls-28" d="M2066.3,589.78l-19.51,15.11a2,2,0,0,1-1,.41c-4.48.42-34.36,3.25-64.31,6-.24-.12-.37-.1-.43,0-21.93,2-44.81,4.16-60,5.55a1.87,1.87,0,0,1-.75-3.65L2008.49,586a2,2,0,0,1,.36-.08c2.79-.33,37.53-4.44,52.21-5a1.73,1.73,0,0,1,1.46.69l4.15,5.63A1.81,1.81,0,0,1,2066.3,589.78Z"/><polygon class="cls-29" points="2047.76 604.66 2047.5 1067.5 2021.33 1067 2025.5 674.5 2047.76 604.66"/><path class="cls-7" d="M1989.34,610.41l58.42-5.75L2025.5,674.5s-37.67-61-36.56-64l.4,0"/><path class="cls-30" d="M2025.9,674.46l-4.81,394.22-80.44-1.22L1889,696.86l31.1-79.63,69.25-6.82c-1.11,3.06,36.56,64.05,36.56,64.05"/><path class="cls-31" d="M1893.38,969.94,1928,1067.5l-104.28-1h0l-15.27-81c3.79-.54,84-15.36,84-15.36"/><path class="cls-32" d="M1887,699.93l-72.52,11.27a6.86,6.86,0,0,1-2.63-.1l-50.67-11.95c-3-.71-2.55-4.4.56-4.57l67.58-3.81a6.87,6.87,0,0,1,.94,0l56.49,4.54C1890,695.57,1890.17,699.44,1887,699.93Z"/><polyline class="cls-33" points="1808.5 985.5 1823.77 1066.46 1767.39 1067.29 1757.5 1067 1721.02 966.47 1721.02 966.47 1808.5 985.5"/><line class="cls-34" x1="1691.88" y1="1022.62" x2="1691.77" y2="1021.9"/><line class="cls-34" x1="1716.71" y1="965.16" x2="1716.71" y2="965.16"/></g><g id="Слой_6" data-name="Слой 6"><path class="cls-35" d="M1768.06,496.9l74,4.69L2045.48,489c3.47-.23,3.29-4.51-.19-4.54l-140.93-1.36-136.23,8.29C1763.68,491.71,1763.62,496.56,1768.06,496.9Z"/></g><polygon class="cls-36" points="1807 885.5 1813.67 711.67 1892.8 968.06 1804.99 950.58 1807 885.5"/><g id="Слой_5" data-name="Слой 5"><path class="cls-37" d="M1723.83,963.25,1805,950.61l86.4,16.68a2.46,2.46,0,0,1-.09,4.87l-82.8,13.33-84.79-15.64C1719.56,969.07,1719.66,963.93,1723.83,963.25Z"/></g><g class="cls-14"><polygon class="cls-38" points="1500.39 944.5 1457.83 944.5 1458.75 857.75 1500.39 944.5"/></g><g class="cls-39"><path class="cls-7" d="M1383.32,944.5c0,5.15,46.18,123,46.18,123s15.45,6,15.25,0-5.09-104-5.09-104Z"/><path class="cls-40" d="M1384.81,944.5h183.37a2,2,0,0,1,.23,3.9l-128.74,15.08-55.44-15.92C1382.19,947,1382.67,944.5,1384.81,944.5Z"/><path class="cls-41" d="M1737.93,705.36,1699.52,700l-.42,0-59-1.49h-.35l-82.37,5.64a3.14,3.14,0,0,0-.55,6.24l25.24,2.47"/><path class="cls-42" d="M1671.87,891.36"/><path class="cls-42" d="M1691.34,1031"/><path class="cls-42" d="M1627.33,879.36"/><path class="cls-42" d="M1665.56,855.64"/><polyline class="cls-43" points="1302.55 1067.5 1297.33 968.11 1369.63 983.56 1389.8 1067.5"/><path class="cls-44" d="M1298.34,969.83l67.78,13.32a3,3,0,0,0,3.1-1.29L1385.66,955a2.45,2.45,0,0,0,.24-2.07l-2.61-7.79a.75.75,0,0,0-.9-.46l-84.17,20A2.6,2.6,0,0,0,1298.34,969.83Z"/><path class="cls-34" d="M1759,696.35"/><polygon class="cls-45" points="1369.63 983.56 1386.1 954.25 1432.22 1067 1389.8 1067.5 1369.63 983.56"/></g><g class="cls-46"><g class="cls-47"><polygon class="cls-48" points="1763.08 330.34 1763.08 330.87 1746.62 431.8 1713.04 426.38 1757.45 341.15 1763.08 330.34"/><path class="cls-49" d="M1455.47,369.83a16.51,16.51,0,0,1-1.67,2h-.2c-1.39-1.75,11.46-53.42,11.7-54.37h0l32.4-10.16h0s-34,51.45-42.25,62.5"/><path class="cls-50" d="M1456.31,370c3.14.63,43.53-14.27,43.53-14.27l-5.89,67.38-40.14-51.23a16.6,16.6,0,0,0,1.67-2Z"/><polygon class="cls-51" points="1763.08 252.7 1763.08 330.34 1757.45 341.16 1709.87 318.45 1763.08 252.7"/><polygon class="cls-51" points="1750.59 210.03 1763.08 252.7 1709.87 318.45 1750.59 210.03"/><polygon class="cls-52" points="1757.45 341.16 1713.04 426.38 1709.87 318.45 1757.45 341.16"/><polygon class="cls-53" points="1750.59 210.03 1709.87 318.45 1706.29 211.24 1750.59 210.03"/><polygon class="cls-54" points="1750.59 210.03 1706.29 211.24 1690.24 199.63 1750.59 210.03"/><polygon class="cls-55" points="1746.62 431.8 1718.33 484.55 1714.88 489.29 1713.04 426.38 1746.62 431.8"/><polygon class="cls-56" points="1718.33 484.55 1689.2 571.55 1647.58 634.3 1621.57 650.63 1605.96 631.48 1610.64 594.98 1636.66 579.99 1642.37 576.7 1675.51 543.55 1714.88 489.31 1714.88 489.29 1718.33 484.55"/><polygon class="cls-55" points="1713.04 426.38 1714.88 489.29 1714.88 489.31 1662.15 447.48 1713.04 426.38"/><polygon class="cls-57" points="1714.88 489.31 1675.51 543.55 1662.15 447.48 1714.88 489.31"/><polygon class="cls-58" points="1709.87 318.45 1713.04 426.38 1662.15 447.48 1709.87 318.45"/><polygon class="cls-59" points="1706.29 211.24 1709.87 318.45 1662.15 232.93 1661.45 231.38 1706.29 211.24"/><polygon class="cls-60" points="1662.15 232.93 1709.87 318.45 1651.11 349.62 1657.99 232.93 1661.45 231.38 1662.15 232.93"/><polygon class="cls-61" points="1709.87 318.45 1662.15 447.48 1657.99 443.15 1651.1 349.62 1709.87 318.45"/><polygon class="cls-62" points="1706.29 211.24 1661.45 231.38 1657.99 232.93 1690.24 199.63 1706.29 211.24"/><path class="cls-63" d="M1690.24,199.63,1658,232.93l-37.47-10.44s66.43-22.68,69.72-22.86"/><path class="cls-64" d="M1640.85,202.31l49.39-2.68c-3.29.18-69.72,22.86-69.72,22.86L1594,210.7Z"/><polygon class="cls-65" points="1662.15 447.48 1675.51 543.55 1642.37 576.7 1636.66 579.99 1637.63 574.95 1662.15 447.48"/><polygon class="cls-66" points="1657.99 443.15 1662.15 447.48 1593.48 501.68 1627.39 411.34 1657.99 443.15"/><polygon class="cls-67" points="1662.15 447.48 1637.63 574.95 1636.66 574.76 1593.48 501.68 1662.15 447.48"/><polygon class="cls-68" points="1657.99 232.93 1651.1 349.62 1607 298.48 1657.99 232.93"/><polygon class="cls-69" points="1657.99 232.93 1607 298.48 1620.52 222.49 1657.99 232.93"/><polygon class="cls-70" points="1651.11 349.62 1657.99 443.15 1627.39 411.34 1651.11 349.62"/><polygon class="cls-71" points="1607 298.48 1651.11 349.62 1578.91 360.92 1607 298.48"/><polygon class="cls-72" points="1651.11 349.62 1627.39 411.34 1578.91 360.92 1651.11 349.62"/><polygon class="cls-73" points="1610.64 594.98 1539.14 636.18 1574.74 571.55 1593.47 501.68 1636.65 574.76 1637.63 574.95 1636.65 579.99 1610.64 594.98"/><polygon class="cls-74" points="1578.91 360.92 1627.39 411.34 1593.47 501.68 1592.96 496.7 1578.91 360.92"/><polygon class="cls-75" points="1620.52 222.49 1607 298.48 1555.75 334.44 1555.74 334.44 1555.74 334.43 1587.23 277.67 1585.2 268.5 1620.52 222.49"/><polygon class="cls-75" points="1620.52 222.49 1585.2 268.5 1583.07 258.94 1620.52 222.49"/><polygon class="cls-76" points="1620.52 222.49 1583.07 258.94 1594.03 210.7 1620.52 222.49"/><path class="cls-77" d="M1578,359.89c-4.31-4.83-22.52-24.94-24.06-22.18l1.81-3.27h0l51.25-36-28.09,62.44-.92-1"/><polygon class="cls-78" points="1594.03 210.7 1583.07 258.94 1544.57 230.85 1594.03 210.7"/><polygon class="cls-56" points="1592.96 496.7 1593.48 501.68 1574.74 571.55 1552.57 510.08 1592.96 496.7"/><path class="cls-79" d="M1593,496.7l-41.77-91.2.12-3,1.26.05L1578,359.89l.92,1Z"/><polygon class="cls-80" points="1551.2 405.5 1592.96 496.7 1552.57 510.08 1551.2 405.5"/><polygon class="cls-81" points="1585.2 268.5 1587.23 277.67 1555.74 334.43 1543.53 322.78 1585.2 268.5"/><polygon class="cls-82" points="1585.2 268.5 1543.53 322.78 1527.66 323.82 1499.83 355.71 1525.84 299.53 1553.93 276.63 1583.07 258.94 1585.2 268.5"/><polygon class="cls-83" points="1583.07 258.94 1553.93 276.63 1525.84 299.53 1544.57 230.85 1583.07 258.94"/><path class="cls-84" d="M1578,359.89l-25.42,42.71-1.26-.05,2.62-64.84c1.54-2.76,19.75,17.35,24.06,22.18"/><polygon class="cls-85" points="1552.57 510.08 1574.74 571.55 1499.83 624.23 1552.57 510.08"/><polygon class="cls-86" points="1574.74 571.55 1539.14 636.18 1539.13 636.18 1524.31 663.07 1499.83 624.23 1574.74 571.55"/><polygon class="cls-87" points="1555.74 334.43 1555.74 334.44 1553.93 337.71 1524.8 355.71 1543.53 322.78 1555.74 334.43"/><polygon class="cls-88" points="1553.93 337.71 1551.31 402.55 1551.2 405.5 1524.8 355.71 1553.93 337.71"/><polygon class="cls-89" points="1551.2 405.5 1552.57 510.08 1493.95 423.11 1551.2 405.5"/><polygon class="cls-90" points="1493.95 423.11 1552.57 510.08 1476.23 469.04 1493.94 423.12 1493.95 423.11"/><polygon class="cls-91" points="1552.57 510.08 1499.83 624.23 1476.23 469.04 1552.57 510.08"/><polygon class="cls-92" points="1524.8 355.71 1551.2 405.5 1493.95 423.11 1493.95 423.09 1524.8 355.71"/><path class="cls-49" d="M1544.57,230.85l-18.73,68.67-28.12,7.8-32.4,10.16c36.17-39.64,79.26-86.63,79.26-86.63"/><polygon class="cls-93" points="1543.53 322.78 1524.8 355.71 1499.83 355.71 1527.66 323.82 1543.53 322.78"/><polygon class="cls-89" points="1525.84 299.53 1499.83 355.71 1497.72 307.33 1497.72 307.32 1525.84 299.53"/><polygon class="cls-94" points="1524.8 355.71 1493.95 423.09 1493.94 423.09 1499.83 355.71 1524.8 355.71"/><polygon class="cls-95" points="1499.83 624.23 1524.31 663.07 1462.37 715.62 1499.83 624.23"/><path class="cls-96" d="M1497.72,307.33l2.12,48.38s-40.38,14.9-43.53,14.27l-.84-.15c8.24-11.05,42.25-62.5,42.25-62.5"/><polygon class="cls-97" points="1476.23 469.04 1499.83 624.23 1445.72 535.4 1451.92 521.8 1474.51 473.49 1476.23 469.04"/><polygon class="cls-98" points="1445.72 535.4 1499.83 624.23 1416.59 690.82 1422.24 660.66 1422.24 660.65 1438.94 571.55 1445.72 535.4"/><polygon class="cls-99" points="1499.83 624.23 1462.37 715.62 1429.08 724.29 1456.18 681.6 1499.83 624.23"/><polygon class="cls-100" points="1499.83 624.23 1456.18 681.6 1429.08 724.29 1416.59 690.82 1499.83 624.23"/><polygon class="cls-101" points="1493.95 423.09 1493.95 423.11 1493.94 423.12 1493.94 423.11 1493.94 423.09 1493.95 423.09"/><path class="cls-102" d="M1493.94,423.09h0c-1.15.61-76.76,40.8-77.36,38.84s37.22-90.09,37.22-90.09Z"/><path class="cls-103" d="M1493.94,423.12,1476.23,469l-1.72,4.45-22.59,48.3-6.19,13.6L1416.59,462c.6,2,76.21-38.23,77.36-38.84"/><path class="cls-104" d="M1453.6,371.87h.2c-.08.06-.15.06-.2,0"/><path class="cls-105" d="M1453.6,371.87c.05.06.11.06.2,0S1416,460,1416.58,462l-21.75-38.85,21.75-51.78Z"/><path class="cls-106" d="M1453.6,371.87l-37-.54c.87-1.3,23.05-25.71,48.72-53.83-.24,1-13.1,52.62-11.7,54.37"/><polygon class="cls-107" points="1416.59 461.96 1445.72 535.4 1438.94 571.55 1392.65 608.56 1416.59 461.96"/><polygon class="cls-108" points="1438.94 571.55 1422.24 660.65 1392.65 608.56 1438.94 571.55"/><polygon class="cls-67" points="1422.24 660.65 1422.24 660.66 1372.59 684.38 1372.59 684.37 1392.65 608.56 1422.24 660.65"/><path class="cls-109" d="M1416.58,371.32l-21.75,51.78-16.74-43.87s36.42-4.79,38.5-7.91"/><path class="cls-110" d="M1394.83,423.1,1416.58,462l-93.64,22.59c4.78-4.78,49.31-39.28,49.31-39.28Z"/><polygon class="cls-111" points="1416.59 461.96 1392.65 608.56 1358.44 547.05 1416.59 461.96"/><polygon class="cls-112" points="1416.59 461.96 1358.44 547.05 1322.94 484.55 1416.59 461.96"/><polygon class="cls-113" points="1378.09 379.23 1394.83 423.11 1372.25 445.27 1378.09 379.23"/><path class="cls-114" d="M1358.44,547.05l34.21,61.51s-105.36-17.34-108.81-19.66Z"/><polygon class="cls-115" points="1392.65 608.56 1372.59 684.37 1372.59 684.38 1368.72 686.22 1314.51 640.2 1392.65 608.56"/><path class="cls-116" d="M1392.65,608.56l-78.15,31.64-30.67-51.3c3.46,2.32,108.81,19.66,108.81,19.66"/><polygon class="cls-117" points="1378.09 379.23 1372.25 445.27 1308.38 426.38 1378.09 379.23"/><polygon class="cls-118" points="1378.09 379.23 1308.38 426.38 1271.66 391.94 1378.09 379.23"/><polygon class="cls-119" points="1378.09 379.23 1271.66 391.94 1233 368.07 1378.09 379.23"/><path class="cls-120" d="M1308.38,426.38l63.87,18.88s-44.53,34.5-49.31,39.28Z"/><path class="cls-121" d="M1368.72,686.22l-73.87,6.36-89.16-8.21,40.6-16.48h0l.67,0h0c.26-.25,30.07-12.41,48.73-20l1.26-.51.62-.25,3.48-1.41,13.42-5.45Z"/><path class="cls-113" d="M1322.94,484.55l35.5,62.5-74.6,41.85c0-4,39.1-104.35,39.1-104.35"/><polygon class="cls-122" points="1308.38 426.38 1322.94 484.55 1240.99 397.38 1308.38 426.38"/><path class="cls-123" d="M1293.8,508.67l29.14-24.12s-39.1,100.31-39.1,104.35L1241,548.38Z"/><polygon class="cls-112" points="1283.84 588.9 1314.51 640.2 1301.09 645.65 1297.61 647.06 1296.99 647.32 1295.73 647.83 1247.12 667.55 1283.84 588.9"/><polygon class="cls-111" points="1308.38 426.38 1240.99 397.38 1271.66 391.94 1308.38 426.38"/><path class="cls-104" d="M1297.61,647.06l3.48-1.41-3.48,1.41"/><path class="cls-104" d="M1295.73,647.83l1.26-.51-1.26.51"/><path class="cls-104" d="M1247.12,667.55l48.61-19.72c-18.66,7.6-48.47,19.75-48.73,20Z"/><polygon class="cls-124" points="1283.84 588.9 1247.12 667.55 1246.98 667.61 1240.99 548.38 1283.84 588.9"/><polygon class="cls-125" points="1271.66 391.94 1240.99 397.38 1233 368.07 1271.66 391.94"/><polygon class="cls-104" points="1247.12 667.55 1247 667.83 1246.99 667.84 1246.98 667.61 1247.12 667.55"/><polygon class="cls-104" points="1246.98 667.61 1246.99 667.84 1246.79 667.68 1246.98 667.61"/><path class="cls-104" d="M1246.79,667.68l.2.16-.67,0Z"/><polygon class="cls-126" points="1240.99 548.38 1246.98 667.61 1246.79 667.68 1207.95 636.18 1240.99 548.38"/><path class="cls-127" d="M1208,636.18l38.83,31.51-.47.2h0c-7.66.52-76.49,5.18-79.43,6.18-1.54.53-23.18.09-44.67-.48Z"/><path class="cls-122" d="M1246.3,667.88l-40.6,16.48-84.61-10.3,1.11-.48c21.49.58,43.13,1,44.67.48,2.94-1,71.77-5.66,79.43-6.18"/><polygon class="cls-128" points="1230.34 556.4 1240.99 548.38 1207.96 636.18 1178.68 588.9 1178.03 587.82 1230.34 556.4"/><path class="cls-129" d="M1178.68,588.9,1208,636.18s-110.42-10-116-7.42c3.12-2.51,86-40.86,86-40.86l.13-.07Z"/><path class="cls-56" d="M1208,636.18l-85.76,37.41-1.45,0-28.8-44.78c5.6-2.63,116,7.42,116,7.42"/><path class="cls-56" d="M1122.19,673.58l-1.11.48-.34-.52,1.45,0"/><path class="cls-130" d="M1524.8,355.71l18.73-32.93,43.7-45.11-33.3,60Z"/><polygon class="cls-131" points="1527.66 325.09 1525.84 299.52 1499.83 355.71 1527.66 325.09"/><polygon class="cls-132" points="1053 558.69 1030.8 503.98 1110.88 560.41 1053 558.69"/><polygon class="cls-133" points="1032.53 554.22 1053 558.69 1064.85 612.99 1032.53 554.22"/><g class="cls-134"><g class="cls-134"><polygon class="cls-56" points="1030.8 503.99 1053.01 558.68 1032.52 554.22 1030.8 503.99"/></g></g><polyline class="cls-135" points="1067.72 531.13 1118.69 489.36 1036.55 483.51 1067.18 529.62"/><polygon class="cls-92" points="1036.55 483.51 1152.79 444.54 1118.69 489.36 1036.55 483.51"/><path class="cls-127" d="M1118.69,489.36s24.81-14.78,25.58-17.1,8.52-27.73,8.52-27.73Z"/><polygon class="cls-127" points="894.63 527.79 924.21 540.24 966.36 514.61 894.63 527.79"/><path class="cls-136" d="M924.21,540.24,956,553.62l10.29-38.8s0-.06-.05,0Z"/><path class="cls-92" d="M956,553.56l10.32-38.89a0,0,0,0,1,.07,0l66,39.48a0,0,0,0,1,0,.09l-76.29-.6a0,0,0,0,1,0-.06"/><polygon class="cls-137" points="1012.8 492 1032.53 554.22 966.36 514.61 1012.8 492"/><polygon class="cls-138" points="1012.8 492 1030.8 503.98 1032.53 554.22 1012.8 492"/><polygon class="cls-138" points="1036.55 483.51 1030.81 503.98 1070.24 531.77 1036.55 483.51"/><polygon class="cls-139" points="1064.85 612.99 1178.68 588.14 1091.95 628.76 1064.85 612.99"/><polygon class="cls-132" points="1148.37 578.38 1064.85 612.99 1110.88 560.41 1148.37 578.38"/><polygon class="cls-140" points="1064.85 612.99 1148.37 578.38 1178.68 588.14 1064.85 612.99"/><path class="cls-90" d="M1064.85,613S1050,558.6,1053,558.69l57.87,1.72Z"/><polygon class="cls-141" points="1064.85 612.99 1121.08 674.07 1091.95 628.76 1064.85 612.99"/></g></g><g class="cls-39"><path class="cls-144" d="M1402.16,887.9c0,9.21-10.63,15.94-20.29,8.59-7.37-9.66-.64-20.3,8.58-20.3a11.72,11.72,0,0,1,11.72,11.72"/><path class="cls-145" d="M1583.14,580.43a9.91,9.91,0,1,1-9.91-9.91,9.91,9.91,0,0,1,9.91,9.91"/><path class="cls-146" d="M1617.62,628.39a11.72,11.72,0,1,1-11.72-11.72,11.72,11.72,0,0,1,11.72,11.72"/><path class="cls-147" d="M1472.73,773.45c0,4.52-5.12,7.84-9.87,4.49a2,2,0,0,1-.48-.48c-3.34-4.75,0-9.87,4.5-9.87a5.86,5.86,0,0,1,5.86,5.86"/><path class="cls-148" d="M1622.59,533.5a5.86,5.86,0,1,1-5.86-5.86,5.86,5.86,0,0,1,5.86,5.86"/><path class="cls-149" d="M1842.06,408.83a9.91,9.91,0,1,1-9.91-9.91,9.91,9.91,0,0,1,9.91,9.91"/><path class="cls-150" d="M2010.3,441a9.91,9.91,0,1,1-9.91-9.91,9.91,9.91,0,0,1,9.91,9.91"/><path class="cls-151" d="M1235.35,786.1A10.39,10.39,0,1,1,1225,775.71a10.39,10.39,0,0,1,10.39,10.39"/><path class="cls-152" d="M1190.57,769.1a6.14,6.14,0,1,1-6.14-6.14,6.15,6.15,0,0,1,6.14,6.14"/><path class="cls-153" d="M1160.48,809.5a6.14,6.14,0,1,1-6.14-6.14,6.15,6.15,0,0,1,6.14,6.14"/><path class="cls-154" d="M1233,746.07a6.14,6.14,0,1,1-6.14-6.14,6.15,6.15,0,0,1,6.14,6.14"/><path class="cls-155" d="M1029.89,432.89a6.14,6.14,0,1,1-6.14-6.14,6.15,6.15,0,0,1,6.14,6.14"/><path class="cls-156" d="M865.13,472.41a6.14,6.14,0,1,1-6.14-6.14,6.15,6.15,0,0,1,6.14,6.14"/><path class="cls-157" d="M1205.75,759.47a3,3,0,1,1-3-3,3,3,0,0,1,3,3"/><path class="cls-158" d="M1051.48,439.11a3,3,0,1,1-3-3,3,3,0,0,1,3,3"/><path class="cls-159" d="M1026.79,426.75a3,3,0,1,1-3-3,3,3,0,0,1,3,3"/><path class="cls-160" d="M1181.34,763a3,3,0,1,1-3-3,3,3,0,0,1,3,3"/><path class="cls-161" d="M1187.47,796.49a3,3,0,1,1-3-3,3,3,0,0,1,3,3"/><path class="cls-162" d="M1140.31,772.19a3,3,0,1,1-3-3,3,3,0,0,1,3,3"/><path class="cls-163" d="M1110.9,796.49a3,3,0,1,1-3-3,3,3,0,0,1,3,3"/><path class="cls-164" d="M1107.85,793.44a3,3,0,1,1-3-3,3,3,0,0,1,3,3"/><path class="cls-165" d="M1060.06,793.44a3,3,0,1,1-3-3,3,3,0,0,1,3,3"/><path class="cls-166" d="M1228,744.89a6.14,6.14,0,1,1-6.14-6.14,6.15,6.15,0,0,1,6.14,6.14"/><path class="cls-167" d="M825.14,445.11a3,3,0,1,1-3-3,3,3,0,0,1,3,3"/><path class="cls-168" d="M836.35,405.4a3,3,0,1,1-3-3,3,3,0,0,1,3,3"/></g><path class="cls-34" d="M1716.71,965.16"/><path class="cls-180" d="M1292.88,827.62c0,4.61-5.32,8-10.15,4.29-3.68-4.83-.31-10.15,4.29-10.15a5.86,5.86,0,0,1,5.86,5.86"/><path class="cls-181" d="M1810.85,920c0,4.52-5.12,7.84-9.87,4.49a2,2,0,0,1-.48-.48c-3.34-4.75,0-9.87,4.5-9.87a5.86,5.86,0,0,1,5.86,5.86"/><path class="cls-182" d="M1810.85,864.67c0,4.52-5.12,7.84-9.87,4.49a2,2,0,0,1-.48-.48c-3.34-4.75,0-9.87,4.5-9.87a5.86,5.86,0,0,1,5.86,5.86"/><path class="cls-183" d="M1855.41,303.7c0,4.52-5.12,7.84-9.87,4.49a2,2,0,0,1-.48-.48c-3.34-4.75,0-9.87,4.5-9.87a5.86,5.86,0,0,1,5.86,5.86"/><path class="cls-184" d="M2001.14,305.42c0,4.52-5.12,7.84-9.87,4.49a2,2,0,0,1-.48-.48c-3.34-4.75,0-9.87,4.5-9.87a5.86,5.86,0,0,1,5.86,5.86"/><path class="cls-185" d="M1331.87,697.66a4.25,4.25,0,0,1-7,3.38,1.49,1.49,0,0,1-.34-.36c-2.38-3.57,0-7.41,3.2-7.41a4.29,4.29,0,0,1,4.17,4.4"/><path class="cls-186" d="M1560.41,438a4.25,4.25,0,0,1-7,3.38,1.49,1.49,0,0,1-.34-.36c-2.38-3.57,0-7.41,3.2-7.41a4.29,4.29,0,0,1,4.17,4.4"/><path class="cls-187" d="M1264.3,531a4.25,4.25,0,0,1-7,3.38,1.49,1.49,0,0,1-.34-.36c-2.38-3.57,0-7.41,3.2-7.41a4.29,4.29,0,0,1,4.17,4.4"/></g><g id="тени"><ellipse class="cls-188" cx="1457.86" cy="842.33" rx="9.88" ry="3.39"/><ellipse class="cls-188" cx="1371.6" cy="959.17" rx="9.88" ry="3.39"/><ellipse class="cls-188" cx="1268.87" cy="1001.09" rx="9.88" ry="3.39"/><ellipse class="cls-188" cx="1590.3" cy="706.45" rx="9.88" ry="2.97"/><ellipse class="cls-188" cx="1791.3" cy="696.21" rx="9.88" ry="2.95"/><ellipse class="cls-188" cx="1832.15" cy="493.87" rx="9.88" ry="3.39"/><ellipse class="cls-188" cx="1900.27" cy="490.48" rx="9.88" ry="3.39"/><ellipse class="cls-188" cx="1980.59" cy="488.55" rx="9.88" ry="3.39"/><ellipse class="cls-188" cx="1805.76" cy="965.16" rx="9.88" ry="3.39"/></g><g id="водоросли"><path class="cls-189" d="M1187.69,1059.39"/><polyline class="cls-189" points="1371.6 959.17 1371.36 932.36 1405.81 886.56 1403.06 848.77"/><line class="cls-189" x1="1382.93" y1="916.98" x2="1374.52" y2="870.87"/><polyline class="cls-189" points="1371.36 950.31 1363.87 930.57 1363.87 898.94"/><path class="cls-189" d="M1457.86,746.95"/><path class="cls-189" d="M1503.44,765.72"/><path class="cls-189" d="M1514.16,808.37"/><path class="cls-189" d="M1510,815.52"/><polyline class="cls-189" points="1475.87 760.13 1466.87 801.23 1457.87 842.33"/><path class="cls-189" d="M1466.87,801.23"/><polyline class="cls-189" points="1466.87 801.23 1455.72 762.52 1466.87 709.12"/><line class="cls-189" x1="1446.33" y1="733.22" x2="1455.72" y2="762.52"/><line class="cls-189" x1="1269.92" y1="1001.09" x2="1269.92" y2="870.87"/><path class="cls-189" d="M1269.92,917c0-2.82,37-58.17,37-58.17"/><line class="cls-189" x1="1293.55" y1="878.99" x2="1274.98" y2="815.52"/><line class="cls-189" x1="1287.02" y1="852.83" x2="1302.55" y2="790.7"/><line class="cls-189" x1="1269.92" y1="974.79" x2="1250.34" y2="944.5"/><line class="cls-189" x1="1804.99" y1="965.16" x2="1813.67" y2="916.98"/><line class="cls-189" x1="1809.33" y1="941.07" x2="1782.43" y2="898.94"/><line class="cls-189" x1="1793.95" y1="916.98" x2="1813.67" y2="858.81"/><line class="cls-189" x1="1791.3" y1="696.21" x2="1804.99" y2="641.95"/><line class="cls-189" x1="1799.85" y1="662.34" x2="1793.95" y2="610.82"/><line class="cls-189" x1="1590.3" y1="705.36" x2="1582.04" y2="641.95"/><line class="cls-189" x1="1586.17" y1="673.66" x2="1616.73" y2="632.87"/><line class="cls-189" x1="1600.18" y1="653.21" x2="1573.23" y2="594.46"/><line class="cls-189" x1="1584.97" y1="620.06" x2="1605.9" y2="520.96"/><line class="cls-189" x1="1596.04" y1="567.69" x2="1590.3" y2="540.63"/><polyline class="cls-190" points="1833.22 493.87 1842.03 440.99 1813.67 398.92"/><line class="cls-190" x1="1842.03" y1="440.99" x2="1834.53" y2="339.75"/><line class="cls-190" x1="1838.28" y1="383.91" x2="1860.83" y2="297.67"/><polyline class="cls-190" points="1900.28 488.55 1922.63 414.69 1911.45 352.89"/><line class="cls-190" x1="1911.45" y1="446.39" x2="1892.8" y2="404.17"/><line class="cls-190" x1="1906.38" y1="468.37" x2="1922.63" y2="458.08"/><path class="cls-190" d="M1977.1,375.95c0,1.93,18.19,44.78,18.19,44.78"/><line class="cls-190" x1="1966.45" y1="244.52" x2="2004.15" y2="362.88"/><polyline class="cls-190" points="2009.41 440.99 1983.11 483.15 2004.15 375.25 1999.55 313.2"/></g></svg>